<?xml version="1.0" encoding="utf-8"?>
<?xml-stylesheet type="text/xsl" href="rss1.xsl"?>
<rss version="2.0" xmlns:atom="http://www.w3.org/2005/Atom" xmlns:content="http://purl.org/rss/1.0/modules/content/" xmlns:dc="http://purl.org/dc/elements/1.1/" xmlns:media="http://search.yahoo.com/mrss/">
<channel>
 <title>Getty</title>
 <link>http://www.gettyimg.com/</link>
 <atom:link href="http://www.gettyimg.com/" rel="self" type="application/rss+xml" />

 
                <item>
                <title><![CDATA[【Music Videos】Queen - Radio Gaga (5.1 DTS) (Clean)]]></title>
                <link><![CDATA[https://sharemania.us/threads/queen-radio-gaga-5-1-dts-clean.247184/]]></link>
                <description><![CDATA[<article>
<blockquote class="messageText SelectQuoteContainer ugc baseHtml">
<img src="https://i.ibb.co/fC63vSk/Queen-Radio-Gaga-5-1-DTS-VOB-thumbs-2024-06-16-19-32-57.jpg" class="bbCodeImage LbImage" alt="[​IMG]" data-url="https://i.ibb.co/fC63vSk/Queen-Radio-Gaga-5-1-DTS-VOB-thumbs-2024-06-16-19-32-57.jpg" style=""> <br>
<br>
<div class="ToggleTriggerAnchor bbCodeSpoilerContainer">
<button type="button" class="button bbCodeSpoilerButton ToggleTrigger Tooltip JsOnly" data-target="> .SpoilerTarget"><span>Spoiler: <span class="SpoilerTitle">MediaInfo</span></span></button>
<div class="SpoilerTarget bbCodeSpoilerText">Queen - Radio Gaga (5.1 DTS).VOB<br>
Format : MPEG-PS<br>
File size : 298 MiB<br>
Duration : 5 min 50 s<br>
Overall bit rate mode : Constant<br>
Overall bit rate : 7 135 kb/s<br>
Frame rate : 29.970 FPS<br>
<br>
Video<br>
ID : 224 (0xE0)<br>
Format : MPEG Video<br>
Format version : Version 2<br>
Format profile : Main@Main<br>
Format settings : BVOP<br>
Format settings, BVOP : Yes<br>
Format settings, Matrix : Default<br>
Format settings, GOP : M=3, N=13<br>
Format settings, picture st : Field<br>
Duration : 5 min 50 s<br>
Bit rate mode : Constant<br>
Bit rate : 5 500 kb/s<br>
Width : 720 pixels<br>
Height : 480 pixels<br>
Display aspect ratio : 2.39:1<br>
Frame rate : 29.970 (30000/1001) FPS<br>
Standard : NTSC<br>
Color space : YUV<br>
Chroma subsampling : 4:2:0<br>
Bit depth : 8 bits<br>
Scan type : Interlaced<br>
Scan order : Top Field First<br>
Compression mode : Lossy<br>
Bits/(Pixel*Frame) : 0.531<br>
Time code of first frame : 10:08:50;02<br>
Time code source : Group of pictures header<br>
GOP, Open/Closed : Open<br>
Stream size : 229 MiB (77%)<br>
Color primaries : BT.601 NTSC<br>
Transfer characteristics : BT.601<br>
Matrix coefficients : BT.601<br>
<br>
Audio<br>
ID : 189 (0xBD)-137 (0x89)<br>
Format : DTS x96<br>
Format/Info : Digital Theater Systems<br>
Commercial name : DTS 96/24<br>
Muxing mode : DVD-Video<br>
Duration : 5 min 50 s<br>
Bit rate mode : Constant<br>
Bit rate : 1 510 kb/s<br>
Channel(s) : 6 channels<br>
Channel layout : C L R Ls Rs LFE<br>
Sampling rate : 96.0 kHz<br>
Frame rate : 93.750 FPS (1024 SPF)<br>
Bit depth : 24 bits<br>
Compression mode : Lossy<br>
Delay relative to video : -47 ms<br>
Stream size : 63.0 MiB (21%)</div>
</div><br>
<div class="bbCodeBlock bbCodeVfcHH HiddenContent">
<div class="attribution type">Hidden Content:</div>
<blockquote>You must reply before you can see the hidden data contained here.</blockquote>
</div>
<div class="messageTextEndMarker">&nbsp;</div>
</blockquote>
</article>]]></description>
                <author><![CDATA[DJ-RoGeRs-BS]]></author>
                </item>

                </channel></rss>